<svg width="40" height="40" viewBox="0 0 40 40" fill="none" xmlns="http://www.w3.org/2000/svg">
<path fill-rule="evenodd" clip-rule="evenodd" d="M20 40C31.0457 40 40 31.0457 40 20C40 8.9543 31.0457 0 20 0C8.9543 0 0 8.9543 0 20C0 31.0457 8.9543 40 20 40ZM21.0404 23.6875C20.844 23.8895 20.5661 23.9905 20.2069 23.9905C19.859 23.9905 19.584 23.8895 19.3819 23.6875C19.1855 23.4798 19.0845 23.1936 19.0788 22.8288L18.9357 14.2502V14.1407V14.0397C18.9357 13.6524 19.0536 13.3466 19.2893 13.1221C19.525 12.8976 19.8309 12.7853 20.2069 12.7853C20.5886 12.7853 20.8945 12.8976 21.1246 13.1221C21.3603 13.3466 21.4782 13.6524 21.4782 14.0397V14.1407C21.4782 14.1744 21.4753 14.2109 21.4697 14.2502L21.3519 22.8288C21.3407 23.1936 21.2368 23.4798 21.0404 23.6875ZM20.9815 28.6545C20.7513 28.7892 20.4932 28.8565 20.2069 28.8565C19.9207 28.8565 19.6597 28.7892 19.424 28.6545C19.1939 28.5198 19.0087 28.3374 18.8684 28.1073C18.7281 27.8771 18.6579 27.6246 18.6579 27.3496C18.6579 27.0746 18.7281 26.8248 18.8684 26.6003C19.0087 26.3702 19.1939 26.1878 19.424 26.0531C19.6597 25.9184 19.9207 25.8511 20.2069 25.8511C20.4932 25.8511 20.7513 25.9184 20.9815 26.0531C21.2172 26.1878 21.4052 26.3702 21.5455 26.6003C21.6858 26.8248 21.756 27.0746 21.756 27.3496C21.756 27.6246 21.6858 27.8771 21.5455 28.1073C21.4052 28.3374 21.2172 28.5198 20.9815 28.6545Z" fill="url(#paint0_radial_54_825)"/>
<defs>
<radialGradient id="paint0_radial_54_825" cx="0" cy="0" r="1" gradientUnits="userSpaceOnUse" gradientTransform="translate(25.9483 17.3276) rotate(104.701) scale(23.4397)">
<stop stop-color="#F28482"/>
<stop offset="1" stop-color="#F28482" stop-opacity="0.8"/>
</radialGradient>
</defs>
</svg>
