<svg width="14" height="12" viewBox="0 0 14 12" fill="none" xmlns="http://www.w3.org/2000/svg">
<path d="M13.9561 5.98291C13.9561 5.74854 13.8682 5.54834 13.6924 5.38232L9.15137 0.833984C9.05859 0.746094 8.96094 0.680176 8.8584 0.63623C8.76074 0.592285 8.66064 0.570312 8.55811 0.570312C8.32373 0.570312 8.13086 0.645996 7.97949 0.797363C7.82812 0.943848 7.75244 1.12939 7.75244 1.354C7.75244 1.47119 7.77441 1.58105 7.81836 1.68359C7.8623 1.78125 7.9209 1.8667 7.99414 1.93994L9.54688 3.50732L12.0591 5.80713L12.3521 5.30908L9.87646 5.16992H1.6001C1.35107 5.16992 1.14844 5.24561 0.992188 5.39697C0.84082 5.54834 0.765137 5.74365 0.765137 5.98291C0.765137 6.22705 0.84082 6.4248 0.992188 6.57617C1.14844 6.72754 1.35107 6.80322 1.6001 6.80322H9.87646L12.3521 6.65674L12.0591 6.17334L9.54688 8.46582L7.99414 10.0332C7.9209 10.1064 7.8623 10.1943 7.81836 10.2969C7.77441 10.3945 7.75244 10.502 7.75244 10.6191C7.75244 10.8438 7.82812 11.0293 7.97949 11.1758C8.13086 11.3223 8.32373 11.3955 8.55811 11.3955C8.77295 11.3955 8.96582 11.3125 9.13672 11.1465L13.6924 6.59082C13.8682 6.4248 13.9561 6.22217 13.9561 5.98291Z" fill="#FEB85D"/>
</svg>
