<svg width="60" height="60" viewBox="0 0 60 60" fill="none" xmlns="http://www.w3.org/2000/svg">
<path fill-rule="evenodd" clip-rule="evenodd" d="M30 60C46.5685 60 60 46.5685 60 30C60 13.4315 46.5685 0 30 0C13.4315 0 0 13.4315 0 30C0 46.5685 13.4315 60 30 60ZM19.793 42.1484C19.1582 41.5391 18.8408 40.6716 18.8408 39.5459V32.4492H28.4766V43.0752H22.4463C21.3122 43.0752 20.4277 42.7663 19.793 42.1484ZM37.541 43.0752H31.5107V32.4492H41.1592V39.5459C41.1592 40.6716 40.8376 41.5391 40.1943 42.1484C39.5596 42.7663 38.6751 43.0752 37.541 43.0752ZM17.8252 29.9355C17.402 29.5293 17.1904 28.9453 17.1904 28.1836V25.8604C17.1904 24.8786 17.4613 24.1338 18.0029 23.626C18.5446 23.1097 19.2894 22.8516 20.2373 22.8516H21.9385C21.5745 22.4792 21.2868 22.0518 21.0752 21.5693C20.8721 21.0869 20.7705 20.5622 20.7705 19.9951C20.7705 19.1064 20.9821 18.3193 21.4053 17.6338C21.8369 16.9398 22.4124 16.3981 23.1318 16.0088C23.8597 15.6195 24.6637 15.4248 25.5439 15.4248C26.2295 15.4248 26.8727 15.556 27.4736 15.8184C28.083 16.0807 28.6077 16.4658 29.0479 16.9736C29.488 17.473 29.8011 18.0866 29.9873 18.8145C30.1904 18.0866 30.5078 17.473 30.9395 16.9736C31.3796 16.4658 31.9001 16.0807 32.501 15.8184C33.1104 15.556 33.7578 15.4248 34.4434 15.4248C35.3236 15.4248 36.1234 15.6195 36.8428 16.0088C37.5706 16.3981 38.1462 16.9398 38.5693 17.6338C39.001 18.3193 39.2168 19.1064 39.2168 19.9951C39.2168 20.5622 39.111 21.0869 38.8994 21.5693C38.6963 22.0518 38.4128 22.4792 38.0488 22.8516H39.75C40.7148 22.8516 41.4639 23.1097 41.9971 23.626C42.5303 24.1338 42.7969 24.8786 42.7969 25.8604V28.1836C42.7969 28.9453 42.5811 29.5293 42.1494 29.9355C41.7262 30.3418 41.1465 30.5449 40.4102 30.5449H31.5107V22.8516H33.2754C34.1895 22.8516 34.8962 22.623 35.3955 22.166C35.9033 21.7005 36.1572 21.1335 36.1572 20.4648C36.1572 19.8301 35.9668 19.3223 35.5859 18.9414C35.2135 18.5605 34.6973 18.3701 34.0371 18.3701C33.5801 18.3701 33.1569 18.4928 32.7676 18.7383C32.3867 18.9837 32.082 19.3223 31.8535 19.7539C31.625 20.1771 31.5107 20.6595 31.5107 21.2012V22.8516H28.4766V21.2012C28.4766 20.6595 28.3623 20.1771 28.1338 19.7539C27.9053 19.3223 27.6006 18.9837 27.2197 18.7383C26.8389 18.4928 26.4157 18.3701 25.9502 18.3701C25.2985 18.3701 24.778 18.5605 24.3887 18.9414C24.0078 19.3223 23.8174 19.8301 23.8174 20.4648C23.8174 21.1335 24.0671 21.7005 24.5664 22.166C25.0742 22.623 25.7894 22.8516 26.7119 22.8516H28.4766V30.5449H19.5771C18.8408 30.5449 18.2568 30.3418 17.8252 29.9355Z" fill="url(#paint0_radial_171_66)"/>
<defs>
<radialGradient id="paint0_radial_171_66" cx="0" cy="0" r="1" gradientUnits="userSpaceOnUse" gradientTransform="translate(44.1176 21.9328) rotate(110.348) scale(40.6008)">
<stop stop-color="#86A8E7"/>
<stop offset="1" stop-color="#86A8E7" stop-opacity="0.4"/>
</radialGradient>
</defs>
</svg>
