<svg width="24" height="24" viewBox="0 0 24 24" fill="none" xmlns="http://www.w3.org/2000/svg">
<circle cx="12" cy="12" r="12" fill="#F2A900"/>
<path d="M11.9964 19.5C13.0259 19.5 13.9925 19.3043 14.8963 18.9128C15.8001 18.5213 16.5976 17.9799 17.2888 17.2888C17.9799 16.5976 18.5213 15.8001 18.9128 14.8963C19.3043 13.9877 19.5 13.021 19.5 11.9964C19.5 10.9717 19.3043 10.0075 18.9128 9.10367C18.5213 8.19986 17.9799 7.40237 17.2888 6.71121C16.5976 6.02006 15.7977 5.47873 14.8891 5.08724C13.9853 4.69575 13.021 4.5 11.9964 4.5C10.9669 4.5 10.0002 4.69575 9.09642 5.08724C8.19261 5.47873 7.39512 6.02006 6.70396 6.71121C6.01764 7.40237 5.47873 8.19986 5.08724 9.10367C4.69575 10.0075 4.5 10.9717 4.5 11.9964C4.5 13.021 4.69575 13.9877 5.08724 14.8963C5.47873 15.8001 6.02006 16.5976 6.71121 17.2888C7.40237 17.9799 8.19986 18.5213 9.10367 18.9128C10.0075 19.3043 10.9717 19.5 11.9964 19.5ZM9.85041 14.7731V9.40817C9.85041 9.20517 9.90841 9.04326 10.0244 8.92243C10.1452 8.8016 10.3072 8.74118 10.5101 8.74118H10.8509V8.16844C10.8509 8.07177 10.8823 7.99203 10.9451 7.92919C11.0128 7.86153 11.095 7.82769 11.1916 7.82769C11.2883 7.82769 11.3681 7.86153 11.4309 7.92919C11.4937 7.99203 11.5251 8.07177 11.5251 8.16844V8.74118H12.0036V8.16844C12.0036 8.07177 12.035 7.99203 12.0979 7.92919C12.1655 7.86153 12.2477 7.82769 12.3444 7.82769C12.441 7.82769 12.5208 7.86153 12.5836 7.92919C12.6513 7.99203 12.6851 8.07177 12.6851 8.16844V8.76293C13.2023 8.82576 13.6107 9.00942 13.9103 9.31392C14.21 9.61358 14.3598 9.99299 14.3598 10.4522C14.3598 10.7566 14.2753 11.0394 14.1061 11.3004C13.9369 11.5614 13.7194 11.7571 13.4536 11.8876C13.8209 11.994 14.1158 12.1921 14.3381 12.4821C14.5652 12.7721 14.6788 13.1153 14.6788 13.5116C14.6788 14.0529 14.5 14.4928 14.1423 14.8311C13.7895 15.1646 13.3038 15.3579 12.6851 15.4111V16.0056C12.6851 16.1071 12.6513 16.1892 12.5836 16.2521C12.5208 16.3149 12.441 16.3463 12.3444 16.3463C12.2477 16.3463 12.1655 16.3149 12.0979 16.2521C12.035 16.1892 12.0036 16.1071 12.0036 16.0056V15.4256H11.5251V16.0056C11.5251 16.1071 11.4937 16.1892 11.4309 16.2521C11.3681 16.3149 11.2883 16.3463 11.1916 16.3463C11.095 16.3463 11.0128 16.3149 10.9451 16.2521C10.8823 16.1892 10.8509 16.1071 10.8509 16.0056V15.4256H10.5029C10.2999 15.4256 10.1404 15.3676 10.0244 15.2516C9.90841 15.1307 9.85041 14.9712 9.85041 14.7731ZM10.9886 14.4613L12.1849 14.4541C12.6247 14.4493 12.9582 14.3647 13.1854 14.2003C13.4174 14.0312 13.5333 13.7823 13.5333 13.4536C13.5333 13.1201 13.4125 12.8688 13.1709 12.6996C12.934 12.5304 12.5836 12.4459 12.1196 12.4459H10.9886V14.4613ZM10.9886 11.5179L11.9456 11.5251C12.3565 11.5251 12.673 11.443 12.8954 11.2786C13.1177 11.1095 13.2289 10.8726 13.2289 10.5681C13.2289 10.2878 13.1298 10.0727 12.9316 9.92291C12.7383 9.77308 12.4652 9.69816 12.1124 9.69816H10.9886V11.5179Z" fill="white"/>
</svg>
