<svg width="11" height="10" viewBox="0 0 11 10" fill="none" xmlns="http://www.w3.org/2000/svg">
<path d="M0.939453 2.09082L8.43164 9.58301C8.5638 9.71517 8.72103 9.80404 8.90332 9.84961C9.09017 9.89518 9.27474 9.89518 9.45703 9.84961C9.64388 9.79948 9.80566 9.70605 9.94238 9.56934C10.0837 9.43262 10.1771 9.27083 10.2227 9.08398C10.2682 8.89714 10.2682 8.71257 10.2227 8.53027C10.1816 8.34342 10.0928 8.18392 9.95605 8.05176L2.4707 0.55957C2.3431 0.431966 2.18587 0.345378 1.99902 0.299805C1.81673 0.254232 1.62988 0.254232 1.43848 0.299805C1.25163 0.345378 1.08984 0.436523 0.953125 0.573242C0.816406 0.714518 0.72526 0.878581 0.679688 1.06543C0.634115 1.25228 0.634115 1.43913 0.679688 1.62598C0.72526 1.80827 0.811849 1.96322 0.939453 2.09082ZM0.939453 8.05859C0.811849 8.1862 0.72526 8.34342 0.679688 8.53027C0.634115 8.71257 0.634115 8.89714 0.679688 9.08398C0.72526 9.27083 0.816406 9.43262 0.953125 9.56934C1.08984 9.71061 1.25163 9.80404 1.43848 9.84961C1.62988 9.89062 1.81673 9.89062 1.99902 9.84961C2.18587 9.80404 2.3431 9.71517 2.4707 9.58301L9.95605 2.09766C10.0928 1.96094 10.1816 1.80143 10.2227 1.61914C10.2682 1.43685 10.2682 1.25228 10.2227 1.06543C10.1771 0.878581 10.0837 0.716797 9.94238 0.580078C9.80566 0.443359 9.64388 0.352214 9.45703 0.306641C9.27474 0.25651 9.09017 0.254232 8.90332 0.299805C8.72103 0.345378 8.5638 0.434245 8.43164 0.566406L0.939453 8.05859Z" fill="#F28482"/>
</svg>
