<svg width="24" height="18" viewBox="0 0 24 18" fill="none" xmlns="http://www.w3.org/2000/svg">
<path d="M4.57227 14.3008C4.28581 14.3008 4.05469 14.2161 3.87891 14.0469C3.70312 13.8711 3.61523 13.6465 3.61523 13.373V11.5664C3.61523 11.2865 3.70312 11.0618 3.87891 10.8926C4.05469 10.7168 4.28581 10.6289 4.57227 10.6289H6.96484C7.2513 10.6289 7.48242 10.7168 7.6582 10.8926C7.83398 11.0618 7.92188 11.2865 7.92188 11.5664V13.373C7.92188 13.6465 7.83398 13.8711 7.6582 14.0469C7.48242 14.2161 7.2513 14.3008 6.96484 14.3008H4.57227ZM0.490234 6.84961V4.56445H23.6152V6.84961H0.490234ZM3.71289 17.416H20.3926C21.4538 17.416 22.2546 17.1458 22.7949 16.6055C23.3418 16.0716 23.6152 15.2839 23.6152 14.2422V3.68555C23.6152 2.64388 23.3418 1.85286 22.7949 1.3125C22.2546 0.772135 21.4538 0.501953 20.3926 0.501953H3.71289C2.65169 0.501953 1.84766 0.772135 1.30078 1.3125C0.760417 1.84635 0.490234 2.63737 0.490234 3.68555V14.2422C0.490234 15.2839 0.760417 16.0716 1.30078 16.6055C1.84766 17.1458 2.65169 17.416 3.71289 17.416Z" fill="black"/>
</svg>
