<svg width="28" height="28" viewBox="0 0 28 28" fill="none"
    xmlns="http://www.w3.org/2000/svg">
    <path d="M0 10C0 4.47715 4.47715 0 10 0H18C23.5228 0 28 4.47715 28 10V18C28 23.5228 23.5228 28 18 28H10C4.47715 28 0 23.5228 0 18V10Z" fill="url(#paint0_linear_911_2)"/>
    <path d="M12.6987 20.1235C13.0838 20.1235 13.38 19.9691 13.5874 19.6602L19.5288 10.4941C19.6007 10.3799 19.6536 10.2699 19.6875 10.1641C19.7214 10.0583 19.7383 9.95459 19.7383 9.85303C19.7383 9.59489 19.6515 9.3833 19.478 9.21826C19.3088 9.04899 19.0929 8.96436 18.8306 8.96436C18.6486 8.96436 18.4941 9.00033 18.3672 9.07227C18.2445 9.14421 18.1281 9.26904 18.0181 9.44678L12.6733 17.9019L9.9375 14.4614C9.73438 14.2075 9.48258 14.0806 9.18213 14.0806C8.91553 14.0806 8.69548 14.1673 8.52197 14.3408C8.34847 14.5101 8.26172 14.7259 8.26172 14.9883C8.26172 15.1068 8.28076 15.221 8.31885 15.3311C8.36117 15.4368 8.43311 15.5469 8.53467 15.6611L11.8164 19.6919C12.0534 19.9797 12.3475 20.1235 12.6987 20.1235Z" fill="black"/>
    <defs>
        <linearGradient id="paint0_linear_911_2" x1="2.22712e-07" y1="28" x2="30.1823" y2="25.7251" gradientUnits="userSpaceOnUse">
            <stop stop-color="#FEB85D"/>
            <stop offset="1" stop-color="#F49FBC"/>
        </linearGradient>
    </defs>
</svg>
