<svg width="52" height="52" viewBox="0 0 52 52" fill="none" xmlns="http://www.w3.org/2000/svg">
<g filter="url(#filter0_d_978_589)">
<rect x="6" y="2" width="40" height="40" rx="10" fill="url(#paint0_linear_978_589)" stroke="white" stroke-opacity="0.2" stroke-width="4"/>
<path d="M31.6865 21.9551H33.2998C33.2907 21.0026 33.0993 20.1025 32.7256 19.2549C32.3519 18.4072 31.8369 17.6598 31.1807 17.0127C30.5244 16.361 29.7656 15.8506 28.9043 15.4814C28.0475 15.1077 27.127 14.9209 26.1426 14.9209C25.1719 14.9209 24.2581 15.1123 23.4014 15.4951C22.5446 15.8779 21.8063 16.3883 21.1865 17.0264C20.986 17.2041 20.8812 17.4023 20.8721 17.6211C20.8675 17.8398 20.9359 18.0221 21.0771 18.168C21.2184 18.3229 21.3962 18.4095 21.6104 18.4277C21.8291 18.4414 22.0433 18.3548 22.2529 18.168C22.7451 17.6667 23.3262 17.2679 23.9961 16.9717C24.666 16.6755 25.3815 16.5273 26.1426 16.5273C26.9173 16.5273 27.6374 16.6709 28.3027 16.958C28.9727 17.2406 29.5583 17.6325 30.0596 18.1338C30.5654 18.6351 30.9596 19.2139 31.2422 19.8701C31.5293 20.5218 31.6774 21.2168 31.6865 21.9551ZM26.1426 29.208C27.1178 29.208 28.0339 29.0166 28.8906 28.6338C29.7474 28.2555 30.4857 27.7474 31.1055 27.1094C31.3014 26.9316 31.4017 26.7334 31.4062 26.5146C31.4154 26.2913 31.3538 26.1068 31.2217 25.9609C31.0758 25.8014 30.8958 25.7171 30.6816 25.708C30.4674 25.6943 30.2533 25.7809 30.0391 25.9678C29.5514 26.4691 28.9727 26.8678 28.3027 27.1641C27.6328 27.4603 26.9128 27.6084 26.1426 27.6084C25.3724 27.6084 24.6523 27.4648 23.9824 27.1777C23.3171 26.8952 22.7314 26.5055 22.2256 26.0088C21.7243 25.5075 21.3301 24.931 21.043 24.2793C20.7559 23.623 20.6077 22.9235 20.5986 22.1807H18.9922C19.0013 23.1331 19.1927 24.0332 19.5664 24.8809C19.9401 25.7285 20.4528 26.4759 21.1045 27.123C21.7607 27.7747 22.5195 28.2852 23.3809 28.6543C24.2422 29.0234 25.1628 29.208 26.1426 29.208ZM18.0557 22.9668H21.7197C21.9932 22.9668 22.1641 22.8757 22.2324 22.6934C22.3053 22.5111 22.2598 22.3037 22.0957 22.0713L20.373 19.665C20.2363 19.4782 20.0745 19.3848 19.8877 19.3848C19.7008 19.3848 19.5413 19.4782 19.4092 19.665L17.6797 22.0645C17.5111 22.2969 17.4609 22.5065 17.5293 22.6934C17.5977 22.8757 17.7731 22.9668 18.0557 22.9668ZM34.2227 21.1758H30.5586C30.2852 21.1758 30.112 21.2669 30.0391 21.4492C29.9707 21.6315 30.0186 21.8366 30.1826 22.0645L31.9053 24.4707C32.042 24.6576 32.2038 24.751 32.3906 24.751C32.5775 24.751 32.7393 24.6576 32.876 24.4707L34.5986 22.0713C34.7673 21.8389 34.8151 21.6315 34.7422 21.4492C34.6738 21.2669 34.5007 21.1758 34.2227 21.1758Z" fill="black"/>
</g>
<defs>
<filter id="filter0_d_978_589" x="0" y="0" width="52" height="52" filterUnits="userSpaceOnUse" color-interpolation-filters="sRGB">
<feFlood flood-opacity="0" result="BackgroundImageFix"/>
<feColorMatrix in="SourceAlpha" type="matrix" values="0 0 0 0 0 0 0 0 0 0 0 0 0 0 0 0 0 0 127 0" result="hardAlpha"/>
<feOffset dy="4"/>
<feGaussianBlur stdDeviation="2"/>
<feComposite in2="hardAlpha" operator="out"/>
<feColorMatrix type="matrix" values="0 0 0 0 0 0 0 0 0 0 0 0 0 0 0 0 0 0 0.25 0"/>
<feBlend mode="normal" in2="BackgroundImageFix" result="effect1_dropShadow_978_589"/>
<feBlend mode="normal" in="SourceGraphic" in2="effect1_dropShadow_978_589" result="shape"/>
</filter>
<linearGradient id="paint0_linear_978_589" x1="6" y1="42" x2="49.1175" y2="38.7502" gradientUnits="userSpaceOnUse">
<stop stop-color="#FEB85D"/>
<stop offset="1" stop-color="#F49FBC"/>
</linearGradient>
</defs>
</svg>
