<svg width="17" height="17" viewBox="0 0 17 17" fill="none" xmlns="http://www.w3.org/2000/svg">
<path d="M1.29297 2.55078L14.793 16.0508C14.9258 16.1836 15.082 16.2734 15.2617 16.3203C15.4414 16.3672 15.6211 16.3672 15.8008 16.3203C15.9805 16.2734 16.1367 16.1836 16.2695 16.0508C16.4102 15.918 16.5 15.7617 16.5391 15.582C16.5859 15.3945 16.5859 15.2109 16.5391 15.0312C16.5 14.8516 16.4102 14.6953 16.2695 14.5625L2.78125 1.0625C2.64844 0.929688 2.48828 0.839844 2.30078 0.792969C2.12109 0.746094 1.94141 0.746094 1.76172 0.792969C1.58203 0.839844 1.42578 0.929688 1.29297 1.0625C1.15234 1.19531 1.05859 1.35547 1.01172 1.54297C0.972656 1.72266 0.976562 1.90234 1.02344 2.08203C1.07031 2.26172 1.16016 2.41797 1.29297 2.55078ZM1.29297 14.5625C1.16016 14.6953 1.07031 14.8516 1.02344 15.0312C0.976562 15.2109 0.972656 15.3945 1.01172 15.582C1.05859 15.7617 1.15234 15.918 1.29297 16.0508C1.42578 16.1836 1.58203 16.2734 1.76172 16.3203C1.94141 16.3672 2.12109 16.3672 2.30078 16.3203C2.48828 16.2734 2.64844 16.1836 2.78125 16.0508L16.2695 2.55078C16.4102 2.41797 16.5 2.26172 16.5391 2.08203C16.5859 1.90234 16.5859 1.72266 16.5391 1.54297C16.5 1.35547 16.4102 1.19531 16.2695 1.0625C16.1367 0.929688 15.9805 0.839844 15.8008 0.792969C15.6211 0.746094 15.4414 0.746094 15.2617 0.792969C15.082 0.839844 14.9258 0.929688 14.793 1.0625L1.29297 14.5625Z" fill="url(#paint0_linear_1625_45)"/>
<defs>
<linearGradient id="paint0_linear_1625_45" x1="-2" y1="21" x2="21.7527" y2="19.4851" gradientUnits="userSpaceOnUse">
<stop stop-color="#FEB85D"/>
<stop offset="1" stop-color="#F49FBC"/>
</linearGradient>
</defs>
</svg>
