<svg width="22" height="16" viewBox="0 0 22 16" fill="none" xmlns="http://www.w3.org/2000/svg">
<path d="M14.459 0.46875C14.0293 0.46875 13.5996 0.507812 13.1699 0.585938C13.9707 1.11979 14.6673 1.76758 15.2598 2.5293C15.8522 3.28451 16.3112 4.12109 16.6367 5.03906C16.9688 5.95703 17.1348 6.92708 17.1348 7.94922C17.1348 8.96484 16.9688 9.93164 16.6367 10.8496C16.3112 11.7676 15.8522 12.6074 15.2598 13.3691C14.6673 14.1309 13.9707 14.7754 13.1699 15.3027C13.5996 15.3874 14.0326 15.4297 14.4688 15.4297C15.4909 15.4297 16.4512 15.2344 17.3496 14.8438C18.2546 14.4466 19.0521 13.903 19.7422 13.2129C20.4323 12.5228 20.9727 11.7285 21.3633 10.8301C21.7539 9.92513 21.9492 8.96484 21.9492 7.94922C21.9492 6.92708 21.7507 5.9668 21.3535 5.06836C20.9629 4.16341 20.4225 3.36914 19.7324 2.68555C19.0423 1.99544 18.2448 1.45508 17.3398 1.06445C16.4349 0.667318 15.4746 0.46875 14.459 0.46875ZM8.22852 15.4297C9.24414 15.4297 10.2012 15.2344 11.0996 14.8438C12.0046 14.4466 12.8021 13.903 13.4922 13.2129C14.1823 12.5228 14.7227 11.7285 15.1133 10.8301C15.5104 9.92513 15.709 8.96484 15.709 7.94922C15.709 6.92708 15.5104 5.9668 15.1133 5.06836C14.7227 4.16341 14.1823 3.36914 13.4922 2.68555C12.8021 1.99544 12.0046 1.45508 11.0996 1.06445C10.2012 0.667318 9.24089 0.46875 8.21875 0.46875C7.19661 0.46875 6.23307 0.667318 5.32812 1.06445C4.42969 1.45508 3.63542 1.99544 2.94531 2.68555C2.26172 3.36914 1.72461 4.16341 1.33398 5.06836C0.943359 5.9668 0.748047 6.92708 0.748047 7.94922C0.748047 8.96484 0.943359 9.92513 1.33398 10.8301C1.72461 11.7285 2.26497 12.5228 2.95508 13.2129C3.64518 13.903 4.43945 14.4466 5.33789 14.8438C6.24284 15.2344 7.20638 15.4297 8.22852 15.4297Z" fill="white" fill-opacity="0.6"/>
</svg>
