<svg width="13" height="8" viewBox="0 0 13 8" fill="none" xmlns="http://www.w3.org/2000/svg">
<path d="M0.560547 5.9906C0.501302 6.04529 0.455729 6.11137 0.423828 6.18884C0.391927 6.26632 0.375977 6.34835 0.375977 6.43494C0.375977 6.55343 0.40332 6.66052 0.458008 6.75623C0.512695 6.84737 0.585612 6.92029 0.676758 6.97498C0.772461 7.02966 0.879557 7.05701 0.998047 7.05701C1.1849 7.05701 1.33301 6.99776 1.44238 6.87927L6.67871 1.53357H5.94727L11.1836 6.87927C11.2975 6.99776 11.4456 7.05701 11.6279 7.05701C11.7464 7.05701 11.8512 7.02966 11.9424 6.97498C12.0381 6.92029 12.1133 6.84737 12.168 6.75623C12.2227 6.66052 12.25 6.55343 12.25 6.43494C12.25 6.2572 12.1885 6.10909 12.0654 5.9906L6.77441 0.576538C6.71517 0.512736 6.64453 0.462606 6.5625 0.426147C6.48503 0.389689 6.40299 0.37146 6.31641 0.37146C6.13411 0.37146 5.97917 0.439819 5.85156 0.576538L0.560547 5.9906Z" fill="white"/>
</svg>
