<svg width="13" height="8" viewBox="0 0 13 8" fill="none" xmlns="http://www.w3.org/2000/svg">
<path d="M0.560547 1.39429C0.501302 1.3396 0.455729 1.27352 0.423828 1.19604C0.391927 1.11857 0.375977 1.03654 0.375977 0.949951C0.375977 0.831462 0.40332 0.724365 0.458008 0.628662C0.512695 0.537516 0.585612 0.4646 0.676758 0.409912C0.772461 0.355225 0.879557 0.327881 0.998047 0.327881C1.1849 0.327881 1.33301 0.387126 1.44238 0.505615L6.67871 5.85132H5.94727L11.1836 0.505615C11.2975 0.387126 11.4456 0.327881 11.6279 0.327881C11.7464 0.327881 11.8512 0.355225 11.9424 0.409912C12.0381 0.4646 12.1133 0.537516 12.168 0.628662C12.2227 0.724365 12.25 0.831462 12.25 0.949951C12.25 1.12769 12.1885 1.2758 12.0654 1.39429L6.77441 6.80835C6.71517 6.87215 6.64453 6.92228 6.5625 6.95874C6.48503 6.9952 6.40299 7.01343 6.31641 7.01343C6.13411 7.01343 5.97917 6.94507 5.85156 6.80835L0.560547 1.39429Z" fill="white"/>
</svg>
