<svg width="17" height="16" viewBox="0 0 17 16" fill="none" xmlns="http://www.w3.org/2000/svg">
<path d="M3.74609 14.4395L13.915 4.2793L12.0869 2.45117L1.91797 12.6201L1.04785 14.7734C1.00684 14.8789 1.00684 14.9756 1.04785 15.0635C1.09473 15.1572 1.16211 15.2275 1.25 15.2744C1.34375 15.3213 1.44043 15.3242 1.54004 15.2832L3.74609 14.4395ZM14.8203 3.38281L15.8311 2.38965C16.0771 2.1377 16.2061 1.87988 16.2178 1.61621C16.2295 1.35254 16.1211 1.10352 15.8926 0.869141L15.5059 0.491211C15.2773 0.256836 15.0283 0.148438 14.7588 0.166016C14.4951 0.183594 14.2402 0.31543 13.9941 0.561523L12.9834 1.55469L14.8203 3.38281Z" fill="white" fill-opacity="0.6"/>
</svg>
