<svg width="26" height="26" viewBox="0 0 26 26" fill="none" xmlns="http://www.w3.org/2000/svg">
<rect x="1" y="1" width="24" height="24" rx="6" fill="url(#paint0_linear_1189_6)" stroke="white" stroke-opacity="0.2" stroke-width="2"/>
<path d="M12.2617 13.2305L14.4355 15.3281C14.916 15.7891 15.3848 16.1328 15.8418 16.3594C16.2988 16.5859 16.7891 16.6992 17.3125 16.6992C17.9609 16.6992 18.5293 16.5547 19.0176 16.2656C19.5059 15.9805 19.8867 15.5781 20.1602 15.0586C20.4336 14.543 20.5703 13.9336 20.5703 13.2305C20.5703 12.5312 20.4336 11.9219 20.1602 11.4023C19.8867 10.8828 19.5059 10.4805 19.0176 10.1953C18.5293 9.91016 17.9609 9.76758 17.3125 9.76758C16.7891 9.76758 16.2988 9.88086 15.8418 10.1074C15.3848 10.334 14.916 10.6758 14.4355 11.1328L12.2617 13.2305ZM13.7441 13.2305L15.1855 11.8887C15.5605 11.5371 15.918 11.2715 16.2578 11.0918C16.5938 10.916 16.9453 10.8281 17.3125 10.8281C17.7461 10.8281 18.1289 10.9258 18.4609 11.1211C18.7891 11.3203 19.0469 11.5996 19.2344 11.959C19.418 12.3184 19.5098 12.7422 19.5098 13.2305C19.5098 13.7188 19.418 14.1426 19.2344 14.502C19.0469 14.8652 18.7891 15.1445 18.4609 15.3398C18.1289 15.5391 17.7461 15.6387 17.3125 15.6387C16.9453 15.6387 16.5918 15.5488 16.252 15.3691C15.9121 15.1895 15.5566 14.9258 15.1855 14.5781L13.7441 13.2305ZM13.7441 13.2305L11.5703 11.1328C11.0898 10.6758 10.6211 10.334 10.1641 10.1074C9.70313 9.88086 9.21289 9.76758 8.69336 9.76758C8.04492 9.76758 7.47656 9.91016 6.98828 10.1953C6.5 10.4805 6.11914 10.8828 5.8457 11.4023C5.57227 11.9219 5.43555 12.5312 5.43555 13.2305C5.43555 13.9336 5.57227 14.543 5.8457 15.0586C6.11914 15.5781 6.5 15.9805 6.98828 16.2656C7.47656 16.5547 8.04492 16.6992 8.69336 16.6992C9.21289 16.6992 9.70312 16.5859 10.1641 16.3594C10.6211 16.1328 11.0898 15.7891 11.5703 15.3281L13.7441 13.2305ZM12.2617 13.2305L10.8203 14.5781C10.4492 14.9258 10.0938 15.1895 9.75391 15.3691C9.41406 15.5488 9.06055 15.6387 8.69336 15.6387C8.25586 15.6387 7.87305 15.5391 7.54492 15.3398C7.21289 15.1445 6.95508 14.8652 6.77148 14.502C6.58789 14.1426 6.49609 13.7187 6.49609 13.2305C6.49609 12.7422 6.58789 12.3184 6.77148 11.959C6.95508 11.5996 7.21289 11.3203 7.54492 11.1211C7.87305 10.9258 8.25586 10.8281 8.69336 10.8281C9.06055 10.8281 9.41406 10.916 9.75391 11.0918C10.0898 11.2715 10.4453 11.5371 10.8203 11.8887L12.2617 13.2305Z" fill="black"/>
<defs>
<linearGradient id="paint0_linear_1189_6" x1="1" y1="25" x2="26.8705" y2="23.0501" gradientUnits="userSpaceOnUse">
<stop stop-color="#FEB85D"/>
<stop offset="1" stop-color="#F49FBC"/>
</linearGradient>
</defs>
</svg>
