<svg width="13" height="7" viewBox="0 0 13 7" fill="none" xmlns="http://www.w3.org/2000/svg">
<path d="M6.31641 6.70801C6.40299 6.70801 6.48503 6.69206 6.5625 6.66016C6.64453 6.6237 6.71517 6.57357 6.77441 6.50977L12.0654 1.08887C12.1885 0.96582 12.25 0.819987 12.25 0.651367C12.25 0.532878 12.2227 0.425781 12.168 0.330078C12.1133 0.234375 12.0381 0.15918 11.9424 0.104492C11.8512 0.0498047 11.7464 0.0224609 11.6279 0.0224609C11.4593 0.0224609 11.3112 0.0817057 11.1836 0.200195L5.94727 5.55273H6.67871L1.44238 0.200195C1.31934 0.0817057 1.17122 0.0224609 0.998047 0.0224609C0.879557 0.0224609 0.772461 0.0498047 0.676758 0.104492C0.585612 0.15918 0.512695 0.234375 0.458008 0.330078C0.40332 0.425781 0.375977 0.532878 0.375977 0.651367C0.375977 0.737956 0.391927 0.819987 0.423828 0.897461C0.455729 0.970378 0.501302 1.03646 0.560547 1.0957L5.85156 6.50977C5.98828 6.64193 6.14323 6.70801 6.31641 6.70801Z" fill="white" fill-opacity="0.24"/>
</svg>
