<svg width="44" height="44" viewBox="0 0 44 44" fill="none" xmlns="http://www.w3.org/2000/svg">
<rect x="2" y="2" width="40" height="40" rx="10" fill="url(#paint0_linear_667_285)" stroke="white" stroke-opacity="0.2" stroke-width="4"/>
<path d="M15.5312 30.1094H23.3516C23.9193 30.1094 24.3411 29.9635 24.6172 29.6719C24.8932 29.3854 25.0312 28.9349 25.0312 28.3203V22.2812C25.0312 21.6719 24.8932 21.224 24.6172 20.9375C24.3411 20.6458 23.9193 20.5 23.3516 20.5L15.6094 20.5078C15.0521 20.5078 14.6198 20.6536 14.3125 20.9453C14.0052 21.2318 13.8516 21.6771 13.8516 22.2812V28.3203C13.8516 28.9349 13.9922 29.3854 14.2734 29.6719C14.5547 29.9635 14.974 30.1094 15.5312 30.1094ZM21.75 21.1328H23.6875V18.5625C23.6875 18.0365 23.7865 17.5885 23.9844 17.2188C24.1875 16.8438 24.4583 16.5599 24.7969 16.3672C25.1406 16.1693 25.526 16.0703 25.9531 16.0703C26.375 16.0703 26.7578 16.1693 27.1016 16.3672C27.4453 16.5599 27.7161 16.8438 27.9141 17.2188C28.112 17.5885 28.2109 18.0365 28.2109 18.5625V20.0469C28.2109 20.4062 28.3021 20.6797 28.4844 20.8672C28.6719 21.0547 28.9062 21.1484 29.1875 21.1484C29.4635 21.1484 29.6927 21.0573 29.875 20.875C30.0573 20.6875 30.1484 20.4115 30.1484 20.0469V18.6719C30.1484 17.9167 30.0312 17.2604 29.7969 16.7031C29.5625 16.1406 29.2448 15.6745 28.8438 15.3047C28.4479 14.9349 28 14.6589 27.5 14.4766C27 14.2891 26.4844 14.1953 25.9531 14.1953C25.4219 14.1953 24.9036 14.2891 24.3984 14.4766C23.8984 14.6589 23.4479 14.9349 23.0469 15.3047C22.651 15.6745 22.3359 16.1406 22.1016 16.7031C21.8672 17.2604 21.75 17.9167 21.75 18.6719V21.1328Z" fill="black"/>
<defs>
<linearGradient id="paint0_linear_667_285" x1="2" y1="42" x2="45.1175" y2="38.7502" gradientUnits="userSpaceOnUse">
<stop stop-color="#FEB85D"/>
<stop offset="1" stop-color="#F49FBC"/>
</linearGradient>
</defs>
</svg>
