<svg width="14" height="14" viewBox="0 0 14 14" fill="none" xmlns="http://www.w3.org/2000/svg">
<path d="M6.61084 13.8916C7.49528 13.8916 8.32682 13.7223 9.10547 13.3838C9.88835 13.0452 10.5781 12.5776 11.1748 11.981C11.7715 11.3843 12.2391 10.6966 12.5776 9.91797C12.9162 9.13509 13.0854 8.30143 13.0854 7.41699C13.0854 6.53255 12.9162 5.70101 12.5776 4.92236C12.2391 4.13949 11.7715 3.44971 11.1748 2.85303C10.5781 2.25635 9.88835 1.78874 9.10547 1.4502C8.32259 1.11165 7.48893 0.942383 6.60449 0.942383C5.72005 0.942383 4.88639 1.11165 4.10352 1.4502C3.32487 1.78874 2.63721 2.25635 2.04053 2.85303C1.44808 3.44971 0.982585 4.13949 0.644043 4.92236C0.305501 5.70101 0.13623 6.53255 0.13623 7.41699C0.13623 8.30143 0.305501 9.13509 0.644043 9.91797C0.982585 10.6966 1.4502 11.3843 2.04688 11.981C2.64355 12.5776 3.33122 13.0452 4.10986 13.3838C4.89274 13.7223 5.7264 13.8916 6.61084 13.8916ZM6.4585 10.7241C6.2723 10.7241 6.10726 10.6585 5.96338 10.5273C5.82373 10.3962 5.75391 10.2354 5.75391 10.0449C5.75391 9.85872 5.82373 9.69792 5.96338 9.5625C6.10303 9.42708 6.26807 9.35938 6.4585 9.35938C6.65316 9.35938 6.82031 9.42708 6.95996 9.5625C7.09961 9.69368 7.16943 9.85449 7.16943 10.0449C7.16943 10.2354 7.09749 10.3962 6.95361 10.5273C6.81396 10.6585 6.64893 10.7241 6.4585 10.7241ZM6.47754 8.77539C6.1263 8.77539 5.95068 8.60189 5.95068 8.25488C5.95068 8.24219 5.95068 8.22949 5.95068 8.2168C5.95068 8.19987 5.95068 8.18506 5.95068 8.17236C5.95068 7.84652 6.02897 7.58626 6.18555 7.3916C6.34212 7.19694 6.53678 7.01709 6.76953 6.85205C7.05729 6.65316 7.271 6.48389 7.41064 6.34424C7.55029 6.20036 7.62012 6.01628 7.62012 5.79199C7.62012 5.54232 7.52913 5.34131 7.34717 5.18896C7.16943 5.03662 6.93245 4.96045 6.63623 4.96045C6.42041 4.96045 6.2321 5.01123 6.07129 5.11279C5.91471 5.21436 5.78353 5.354 5.67773 5.53174C5.56771 5.65446 5.47884 5.76025 5.41113 5.84912C5.34342 5.93376 5.21647 5.97607 5.03027 5.97607C4.92025 5.97607 4.81657 5.93799 4.71924 5.86182C4.62191 5.78564 4.57324 5.6735 4.57324 5.52539C4.57324 5.47038 4.57747 5.41536 4.58594 5.36035C4.59863 5.30534 4.61344 5.25244 4.63037 5.20166C4.72347 4.89697 4.94564 4.63249 5.29688 4.4082C5.65234 4.18392 6.11361 4.07178 6.68066 4.07178C7.05306 4.07178 7.39583 4.13525 7.70898 4.26221C8.02637 4.38916 8.28239 4.57747 8.47705 4.82715C8.67171 5.07259 8.76904 5.37728 8.76904 5.74121C8.76904 6.13477 8.66536 6.4458 8.45801 6.67432C8.25488 6.90283 7.99463 7.12077 7.67725 7.32812C7.44873 7.47624 7.27946 7.618 7.16943 7.75342C7.05941 7.8846 7.00439 8.04329 7.00439 8.22949C7.00439 8.23796 7.00439 8.25065 7.00439 8.26758C7.00439 8.28027 7.00439 8.29297 7.00439 8.30566C7.00439 8.43685 6.95785 8.54899 6.86475 8.64209C6.77165 8.73096 6.64258 8.77539 6.47754 8.77539Z" fill="white" fill-opacity="0.24"/>
</svg>
