<svg width="100" height="100" viewBox="0 0 100 100" fill="none" xmlns="http://www.w3.org/2000/svg">
<path fill-rule="evenodd" clip-rule="evenodd" d="M50 100C77.6142 100 100 77.6142 100 50C100 22.3858 77.6142 0 50 0C22.3858 0 0 22.3858 0 50C0 77.6142 22.3858 100 50 100ZM45.4109 50.4545L34.25 39.2837C33.8654 38.899 33.601 38.4343 33.4567 37.8894C33.3285 37.3446 33.3285 36.7997 33.4567 36.2548C33.5849 35.6939 33.8574 35.2051 34.274 34.7885C34.6747 34.3878 35.1474 34.1234 35.6923 33.9952C36.2532 33.851 36.8061 33.851 37.351 33.9952C37.9119 34.1234 38.3846 34.3798 38.7692 34.7644L49.9351 45.9303L61.0769 34.7885C61.4776 34.3878 61.9503 34.1234 62.4952 33.9952C63.0401 33.851 63.5849 33.851 64.1298 33.9952C64.6747 34.1234 65.1474 34.3958 65.5481 34.8125C65.9647 35.2131 66.2372 35.6939 66.3654 36.2548C66.5096 36.7997 66.5176 37.3446 66.3894 37.8894C66.2612 38.4343 65.9968 38.9071 65.5962 39.3077L54.4543 50.4495L65.5962 61.5913C65.9968 61.992 66.2612 62.4647 66.3894 63.0096C66.5176 63.5545 66.5096 64.1074 66.3654 64.6683C66.2372 65.2131 65.9647 65.6859 65.5481 66.0865C65.1474 66.5032 64.6747 66.7837 64.1298 66.9279C63.5849 67.0561 63.0401 67.0561 62.4952 66.9279C61.9503 66.7837 61.4776 66.5192 61.0769 66.1346L49.9281 54.9758L38.7692 66.1346C38.3846 66.5192 37.9119 66.7837 37.351 66.9279C36.8061 67.0561 36.2532 67.0561 35.6923 66.9279C35.1474 66.7837 34.6747 66.5112 34.274 66.1106C33.8574 65.6939 33.5849 65.2131 33.4567 64.6683C33.3285 64.1074 33.3285 63.5545 33.4567 63.0096C33.601 62.4647 33.8654 62 34.25 61.6154L45.4109 50.4545Z" fill="url(#paint0_radial_995_123)"/>
<defs>
<radialGradient id="paint0_radial_995_123" cx="0" cy="0" r="1" gradientUnits="userSpaceOnUse" gradientTransform="translate(64.8707 43.319) rotate(104.701) scale(58.5993)">
<stop stop-color="#F49FBC"/>
<stop offset="1" stop-color="#F49FBC" stop-opacity="0.8"/>
</radialGradient>
</defs>
</svg>
