<svg width="14" height="13" viewBox="0 0 14 13" fill="none" xmlns="http://www.w3.org/2000/svg">
<path d="M5.67578 12.21C6.09049 12.21 6.40951 12.0436 6.63281 11.7109L13.0312 1.83984C13.1087 1.7168 13.1657 1.59831 13.2021 1.48438C13.2386 1.37044 13.2568 1.25879 13.2568 1.14941C13.2568 0.871419 13.1634 0.643555 12.9766 0.46582C12.7943 0.283529 12.5618 0.192383 12.2793 0.192383C12.0833 0.192383 11.917 0.23112 11.7803 0.308594C11.6481 0.386068 11.5228 0.520508 11.4043 0.711914L5.64844 9.81738L2.70215 6.1123C2.4834 5.83887 2.21224 5.70215 1.88867 5.70215C1.60156 5.70215 1.36458 5.79557 1.17773 5.98242C0.990885 6.16471 0.897461 6.39714 0.897461 6.67969C0.897461 6.80729 0.917969 6.93034 0.958984 7.04883C1.00456 7.16276 1.08203 7.28125 1.19141 7.4043L4.72559 11.7451C4.98079 12.055 5.29753 12.21 5.67578 12.21Z" fill="#4DD7D7"/>
</svg>
