<svg width="14" height="11" viewBox="0 0 14 11" fill="none" xmlns="http://www.w3.org/2000/svg">
<path d="M13.0112 5.41064C13.0112 5.30908 12.9922 5.21387 12.9541 5.125C12.916 5.0319 12.8589 4.9515 12.7827 4.88379L8.60596 0.713379C8.52555 0.632975 8.44092 0.575846 8.35205 0.541992C8.26742 0.503906 8.18066 0.484863 8.0918 0.484863C7.88867 0.484863 7.72152 0.550456 7.59033 0.681641C7.46338 0.808594 7.3999 0.967285 7.3999 1.15771C7.3999 1.25928 7.41683 1.35238 7.45068 1.43701C7.48877 1.52165 7.53955 1.59782 7.60303 1.66553L9.0376 3.11279L11.3799 5.25195L11.6084 4.83301L9.39941 4.69971H1.70605C1.49447 4.69971 1.32096 4.7653 1.18555 4.89648C1.05436 5.02767 0.98877 5.19906 0.98877 5.41064C0.98877 5.618 1.05436 5.78727 1.18555 5.91846C1.32096 6.04964 1.49447 6.11523 1.70605 6.11523H9.39941L11.6084 5.98828L11.3799 5.56934L9.0376 7.7085L7.60303 9.15576C7.53955 9.21924 7.48877 9.29329 7.45068 9.37793C7.41683 9.46257 7.3999 9.55566 7.3999 9.65723C7.3999 9.85189 7.46338 10.0127 7.59033 10.1396C7.72152 10.2708 7.88867 10.3364 8.0918 10.3364C8.27799 10.3364 8.44727 10.2624 8.59961 10.1143L12.7827 5.9375C12.8589 5.86556 12.916 5.78304 12.9541 5.68994C12.9922 5.59684 13.0112 5.50374 13.0112 5.41064Z" fill="white" fill-opacity="0.6"/>
</svg>
