<svg width="17" height="22" viewBox="0 0 17 22" fill="none" xmlns="http://www.w3.org/2000/svg">
<path d="M3.23828 21.0322H13.3896C14.3682 21.0322 15.1123 20.7773 15.6221 20.2676C16.1318 19.7578 16.3867 19.0225 16.3867 18.0615V9.77344C16.3867 8.8125 16.1318 8.07715 15.6221 7.56738C15.1123 7.05762 14.3682 6.80273 13.3896 6.80273H9.49609V13.0781C9.49609 13.3945 9.38184 13.6641 9.15332 13.8867C8.9248 14.1094 8.65234 14.2207 8.33594 14.2207C8.01367 14.2207 7.73828 14.1094 7.50977 13.8867C7.28125 13.6641 7.16699 13.3945 7.16699 13.0781V6.80273H3.23828C2.25977 6.80273 1.51562 7.05762 1.00586 7.56738C0.496094 8.07129 0.241211 8.80664 0.241211 9.77344V18.0615C0.241211 19.0283 0.496094 19.7637 1.00586 20.2676C1.51562 20.7773 2.25977 21.0322 3.23828 21.0322ZM8.33594 7.90137C8.58789 7.90137 8.80176 7.81348 8.97754 7.6377C9.15918 7.45605 9.25 7.24219 9.25 6.99609V4.29785L9.1709 3.00586L9.67188 3.67383L10.8232 4.89551C10.9814 5.07129 11.1836 5.15918 11.4297 5.15918C11.6406 5.15918 11.8252 5.08887 11.9834 4.94824C12.1475 4.80176 12.2295 4.61133 12.2295 4.37695C12.2295 4.25977 12.209 4.15723 12.168 4.06934C12.127 3.97559 12.0654 3.89063 11.9834 3.81445L9.03906 0.984375C8.92188 0.867188 8.80469 0.785156 8.6875 0.738281C8.57031 0.691406 8.45312 0.667969 8.33594 0.667969C8.20703 0.667969 8.08398 0.691406 7.9668 0.738281C7.85547 0.785156 7.73828 0.867188 7.61523 0.984375L4.67969 3.81445C4.59766 3.89063 4.5332 3.97559 4.48633 4.06934C4.44531 4.15723 4.4248 4.25977 4.4248 4.37695C4.4248 4.61133 4.50391 4.80176 4.66211 4.94824C4.82617 5.08887 5.0166 5.15918 5.2334 5.15918C5.47363 5.15918 5.67578 5.07129 5.83984 4.89551L6.99121 3.67383L7.4834 3.00586L7.41309 4.29785V6.99609C7.41309 7.24219 7.50098 7.45605 7.67676 7.6377C7.8584 7.81348 8.07812 7.90137 8.33594 7.90137Z" fill="#86A8E7"/>
</svg>
