<svg width="24" height="24" viewBox="0 0 24 24" fill="none" xmlns="http://www.w3.org/2000/svg">
<path d="M6.0918 20.4941H8.19141C8.3737 20.4941 8.52344 20.5592 8.64062 20.6895L10.125 22.1641C10.763 22.8021 11.388 23.1178 12 23.1113C12.612 23.1113 13.2337 22.7956 13.8652 22.1641L15.3496 20.6895C15.4798 20.5592 15.6328 20.4941 15.8086 20.4941H17.8984C18.7969 20.4941 19.4642 20.2793 19.9004 19.8496C20.3366 19.4199 20.5547 18.7526 20.5547 17.8477V15.7578C20.5547 15.5755 20.6165 15.4225 20.7402 15.2988L22.2148 13.8145C22.8529 13.1829 23.1686 12.5612 23.1621 11.9492C23.1621 11.3372 22.8464 10.7122 22.2148 10.0742L20.7402 8.58984C20.6165 8.46615 20.5547 8.31641 20.5547 8.14062V6.04102C20.5547 5.14909 20.3366 4.48503 19.9004 4.04883C19.4707 3.61263 18.8034 3.39453 17.8984 3.39453H15.8086C15.6328 3.39453 15.4798 3.33268 15.3496 3.20898L13.8652 1.73438C13.2337 1.08984 12.612 0.770833 12 0.777344C11.388 0.777344 10.763 1.09635 10.125 1.73438L8.64062 3.20898C8.52344 3.33268 8.3737 3.39453 8.19141 3.39453H6.0918C5.19336 3.39453 4.52604 3.60938 4.08984 4.03906C3.66016 4.46875 3.44531 5.13607 3.44531 6.04102V8.14062C3.44531 8.31641 3.38346 8.46615 3.25977 8.58984L1.78516 10.0742C1.14714 10.7122 0.828125 11.3372 0.828125 11.9492C0.828125 12.5612 1.14714 13.1829 1.78516 13.8145L3.25977 15.2988C3.38346 15.4225 3.44531 15.5755 3.44531 15.7578V17.8477C3.44531 18.7461 3.66016 19.4102 4.08984 19.8398C4.52604 20.276 5.19336 20.4941 6.0918 20.4941ZM10.9062 16.7637C10.7174 16.7637 10.5482 16.7246 10.3984 16.6465C10.2487 16.5618 10.1022 16.4316 9.95898 16.2559L7.56641 13.3555C7.48177 13.2448 7.41667 13.1309 7.37109 13.0137C7.32552 12.8965 7.30273 12.776 7.30273 12.6523C7.30273 12.4049 7.39062 12.1901 7.56641 12.0078C7.74219 11.8255 7.95378 11.7344 8.20117 11.7344C8.36393 11.7344 8.50716 11.7669 8.63086 11.832C8.75456 11.8971 8.87826 12.0111 9.00195 12.1738L10.877 14.5371L14.9004 8.10156C15.1152 7.75651 15.3854 7.58398 15.7109 7.58398C15.9518 7.58398 16.1667 7.66211 16.3555 7.81836C16.5508 7.97461 16.6484 8.18294 16.6484 8.44336C16.6484 8.56055 16.6224 8.67773 16.5703 8.79492C16.5247 8.91211 16.4661 9.02604 16.3945 9.13672L11.8242 16.2559C11.707 16.4186 11.5703 16.5456 11.4141 16.6367C11.2643 16.7214 11.0951 16.7637 10.9062 16.7637Z" fill="#FEB85D"/>
</svg>
