<svg width="10" height="4" viewBox="0 0 13 4" fill="none"
    xmlns="http://www.w3.org/2000/svg">
    <path d="M0.492188 2.43359C0.360026 2.48372 0.255208 2.56348 0.177734 2.67285C0.10026 2.77767 0.0615234 2.8916 0.0615234 3.01465C0.0615234 3.21973 0.127604 3.39062 0.259766 3.52734C0.391927 3.65951 0.55599 3.72559 0.751953 3.72559C0.856771 3.72559 0.968424 3.70508 1.08691 3.66406C1.20996 3.61849 1.31478 3.57747 1.40137 3.54102L6.6377 1.49023H5.67383L10.9102 3.54102C10.9967 3.57747 11.1016 3.61849 11.2246 3.66406C11.3477 3.70508 11.4593 3.72559 11.5596 3.72559C11.7555 3.72559 11.9196 3.65951 12.0518 3.52734C12.1839 3.39062 12.25 3.21973 12.25 3.01465C12.25 2.8916 12.2113 2.77767 12.1338 2.67285C12.0563 2.56348 11.9515 2.48372 11.8193 2.43359L7.15723 0.608398C6.99772 0.549154 6.8291 0.489909 6.65137 0.430664C6.47363 0.366862 6.30957 0.334961 6.15918 0.334961C6.00423 0.334961 5.83789 0.366862 5.66016 0.430664C5.48242 0.489909 5.31608 0.549154 5.16113 0.608398L0.492188 2.43359Z" fill="white" fill-opacity="0.24"/>
</svg>
