<svg width="8" height="12" viewBox="0 0 8 12" fill="none" xmlns="http://www.w3.org/2000/svg">
<path d="M0.875 6.06445C0.875 6.15104 0.890951 6.23307 0.922852 6.31055C0.954753 6.38346 1.0026 6.45182 1.06641 6.51562L6.4873 11.8135C6.61035 11.9365 6.75846 11.998 6.93164 11.998C7.05013 11.998 7.15495 11.9707 7.24609 11.916C7.3418 11.8613 7.41699 11.7861 7.47168 11.6904C7.53092 11.5993 7.56055 11.4945 7.56055 11.376C7.56055 11.2074 7.49902 11.0592 7.37598 10.9316L2.39941 6.06445L7.37598 1.19727C7.49902 1.06966 7.56055 0.921549 7.56055 0.75293C7.56055 0.63444 7.53092 0.529622 7.47168 0.438477C7.41699 0.342773 7.3418 0.267578 7.24609 0.212891C7.15495 0.158203 7.05013 0.130859 6.93164 0.130859C6.75846 0.130859 6.61035 0.190104 6.4873 0.308594L1.06641 5.61328C1.0026 5.67708 0.954753 5.74772 0.922852 5.8252C0.890951 5.89811 0.875 5.97786 0.875 6.06445Z" fill="white" fill-opacity="0.6"/>
</svg>
