<svg width="13" height="13" viewBox="0 0 13 13" fill="none" xmlns="http://www.w3.org/2000/svg">
<path d="M5.09082 12.1211C5.4554 12.1211 5.73568 11.973 5.93164 11.6768L12.002 2.26367C12.0703 2.1543 12.1204 2.04948 12.1523 1.94922C12.1842 1.84896 12.2002 1.75326 12.2002 1.66211C12.2002 1.41602 12.1227 1.21549 11.9678 1.06055C11.8128 0.905599 11.6123 0.828125 11.3662 0.828125C11.193 0.828125 11.0472 0.862305 10.9287 0.930664C10.8148 0.999023 10.7054 1.11523 10.6006 1.2793L5.06348 10.0635L2.21973 6.44043C2.02832 6.18978 1.79134 6.06445 1.50879 6.06445C1.25814 6.06445 1.05078 6.14421 0.886719 6.30371C0.727214 6.46322 0.647461 6.66374 0.647461 6.90527C0.647461 7.01465 0.667969 7.12174 0.708984 7.22656C0.75 7.32682 0.816081 7.43164 0.907227 7.54102L4.25 11.6973C4.48242 11.9798 4.7627 12.1211 5.09082 12.1211Z" fill="#FEB85D"/>
</svg>
