<svg width="14" height="13" viewBox="0 0 14 13" fill="none" xmlns="http://www.w3.org/2000/svg">
<path d="M5.51855 12.2783C6.00618 12.2783 6.3776 12.0869 6.63281 11.7041L12.9971 2.00391C13.0882 1.86719 13.1543 1.73275 13.1953 1.60059C13.2363 1.46842 13.2568 1.34082 13.2568 1.21777C13.2568 0.885091 13.1429 0.609375 12.915 0.390625C12.6917 0.171875 12.4115 0.0625 12.0742 0.0625C11.8372 0.0625 11.639 0.110352 11.4795 0.206055C11.32 0.297201 11.1696 0.454427 11.0283 0.677734L5.49121 9.39355L2.68848 5.96191C2.43783 5.65658 2.12337 5.50391 1.74512 5.50391C1.40332 5.50391 1.11849 5.61556 0.890625 5.83887C0.667318 6.06217 0.555664 6.34017 0.555664 6.67285C0.555664 6.82324 0.580729 6.9668 0.630859 7.10352C0.685547 7.24023 0.776693 7.38151 0.904297 7.52734L4.43164 11.7656C4.71875 12.1074 5.08105 12.2783 5.51855 12.2783Z" fill="#A5FFD6"/>
</svg>
