<svg width="20" height="20" viewBox="0 0 20 20" fill="none" xmlns="http://www.w3.org/2000/svg">
<path d="M12.8906 9.20703H17.002C17.7116 9.20703 18.2422 9.03125 18.5938 8.67969C18.9518 8.32161 19.1309 7.77474 19.1309 7.03906V2.99609C19.1309 2.26042 18.9518 1.7168 18.5938 1.36523C18.2422 1.01367 17.7116 0.837891 17.002 0.837891H12.8906C12.168 0.837891 11.6309 1.01367 11.2793 1.36523C10.9277 1.7168 10.752 2.26042 10.752 2.99609V7.03906C10.752 7.77474 10.9277 8.32161 11.2793 8.67969C11.6309 9.03125 12.168 9.20703 12.8906 9.20703ZM2.99805 19.0898H7.11914C7.82878 19.0898 8.35938 18.9141 8.71094 18.5625C9.0625 18.2109 9.23828 17.6673 9.23828 16.9316V12.8789C9.23828 12.1497 9.0625 11.6094 8.71094 11.2578C8.35938 10.8997 7.82878 10.7207 7.11914 10.7207H2.99805C2.2819 10.7207 1.74805 10.8997 1.39648 11.2578C1.04492 11.6094 0.869141 12.1497 0.869141 12.8789V16.9316C0.869141 17.6673 1.04492 18.2109 1.39648 18.5625C1.74805 18.9141 2.2819 19.0898 2.99805 19.0898ZM2.99805 9.20703H7.11914C7.82878 9.20703 8.35938 9.03125 8.71094 8.67969C9.0625 8.32161 9.23828 7.77474 9.23828 7.03906V2.99609C9.23828 2.26042 9.0625 1.7168 8.71094 1.36523C8.35938 1.01367 7.82878 0.837891 7.11914 0.837891H2.99805C2.2819 0.837891 1.74805 1.01367 1.39648 1.36523C1.04492 1.7168 0.869141 2.26042 0.869141 2.99609V7.03906C0.869141 7.77474 1.04492 8.32161 1.39648 8.67969C1.74805 9.03125 2.2819 9.20703 2.99805 9.20703ZM12.8906 19.0898H17.002C17.7116 19.0898 18.2422 18.9141 18.5938 18.5625C18.9518 18.2109 19.1309 17.6673 19.1309 16.9316V12.8789C19.1309 12.1497 18.9518 11.6094 18.5938 11.2578C18.2422 10.8997 17.7116 10.7207 17.002 10.7207H12.8906C12.168 10.7207 11.6309 10.8997 11.2793 11.2578C10.9277 11.6094 10.752 12.1497 10.752 12.8789V16.9316C10.752 17.6673 10.9277 18.2109 11.2793 18.5625C11.6309 18.9141 12.168 19.0898 12.8906 19.0898Z" fill="#FEB85D"/>
</svg>
