<svg width="18" height="18" viewBox="0 0 18 18" fill="none" xmlns="http://www.w3.org/2000/svg">
<path fill-rule="evenodd" clip-rule="evenodd" d="M4.28571 0C1.91878 0 0 1.91878 0 4.28571V13.7143C0 16.0812 1.91878 18 4.28571 18H13.7143C16.0812 18 18 16.0812 18 13.7143V4.28571C18 1.91878 16.0812 0 13.7143 0H4.28571ZM8.78516 13.5532C8.58464 13.854 8.29281 14.0044 7.90967 14.0044C7.56592 14.0044 7.28125 13.8701 7.05566 13.6016L4.28418 10.2715C4.18392 10.1569 4.1123 10.0459 4.06934 9.93848C4.02995 9.83105 4.01025 9.71826 4.01025 9.6001C4.01025 9.3387 4.09798 9.12028 4.27344 8.94482C4.45247 8.76937 4.67627 8.68164 4.94482 8.68164C5.24202 8.68164 5.4891 8.80159 5.68604 9.0415L7.88818 11.7378L12.2388 4.88965C12.3498 4.71419 12.4679 4.59066 12.5933 4.51904C12.7186 4.44385 12.8743 4.40625 13.0605 4.40625C13.3255 4.40625 13.5457 4.49219 13.7212 4.66406C13.9002 4.83594 13.9897 5.05257 13.9897 5.31396C13.9897 5.41064 13.9736 5.5109 13.9414 5.61475C13.9092 5.71859 13.8573 5.82422 13.7856 5.93164L8.78516 13.5532Z" fill="url(#paint0_radial_80_6343)"/>
<defs>
<radialGradient id="paint0_radial_80_6343" cx="0" cy="0" r="1" gradientUnits="userSpaceOnUse" gradientTransform="translate(11.6767 7.79741) rotate(104.701) scale(10.5479)">
<stop stop-color="#78FECF"/>
<stop offset="1" stop-color="#78FECF" stop-opacity="0.8"/>
</radialGradient>
</defs>
</svg>
