<svg width="44" height="44" viewBox="0 0 44 44" fill="none" xmlns="http://www.w3.org/2000/svg">
<rect x="2" y="2" width="40" height="40" rx="10" fill="url(#paint0_linear_978_415)" stroke="white" stroke-opacity="0.2" stroke-width="4"/>
<path d="M22.0078 14.1484C21.6536 14.1484 21.3698 14.2604 21.1562 14.4844C20.9375 14.7083 20.8281 15.0052 20.8281 15.375V23.875L20.9531 26.875L21.625 26.4062L19.4375 23.8672L17.6484 22.0938C17.5443 21.9844 17.4245 21.8932 17.2891 21.8203C17.1484 21.7526 16.9896 21.7188 16.8125 21.7188C16.4948 21.7188 16.2292 21.8229 16.0156 22.0312C15.8021 22.2448 15.6953 22.5182 15.6953 22.8516C15.6953 23.1641 15.8177 23.4453 16.0625 23.6953L21.1406 28.7812C21.2448 28.8906 21.375 28.974 21.5312 29.0312C21.6875 29.0938 21.8464 29.125 22.0078 29.125C22.1641 29.125 22.3203 29.0938 22.4766 29.0312C22.6328 28.974 22.7656 28.8906 22.875 28.7812L27.9453 23.6953C28.1901 23.4453 28.3125 23.1641 28.3125 22.8516C28.3125 22.5182 28.2057 22.2448 27.9922 22.0312C27.7786 21.8229 27.513 21.7188 27.1953 21.7188C27.0182 21.7188 26.862 21.7526 26.7266 21.8203C26.5859 21.8932 26.4635 21.9844 26.3594 22.0938L24.5781 23.8672L22.3906 26.4062L23.0547 26.875L23.1797 23.875V15.375C23.1797 15.0052 23.0729 14.7083 22.8594 14.4844C22.6406 14.2604 22.3568 14.1484 22.0078 14.1484Z" fill="black"/>
<defs>
<linearGradient id="paint0_linear_978_415" x1="2" y1="42" x2="45.1175" y2="38.7502" gradientUnits="userSpaceOnUse">
<stop stop-color="#FEB85D"/>
<stop offset="1" stop-color="#F49FBC"/>
</linearGradient>
</defs>
</svg>
