<svg width="44" height="44" viewBox="0 0 44 44" fill="none" xmlns="http://www.w3.org/2000/svg">
<rect x="2" y="2" width="40" height="40" rx="10" fill="url(#paint0_linear_664_454)" stroke="white" stroke-opacity="0.2" stroke-width="4"/>
<path d="M18.0938 30.1094H25.9141C26.4766 30.1094 26.8958 29.9635 27.1719 29.6719C27.4531 29.3854 27.5938 28.9349 27.5938 28.3203V22.2812C27.5938 21.6719 27.4531 21.224 27.1719 20.9375C26.8958 20.6458 26.4766 20.5 25.9141 20.5L18.1719 20.5078C17.6094 20.5078 17.1745 20.6536 16.8672 20.9453C16.5651 21.2318 16.4141 21.6771 16.4141 22.2812V28.3203C16.4141 28.9349 16.5521 29.3854 16.8281 29.6719C17.1094 29.9635 17.5312 30.1094 18.0938 30.1094ZM17.7969 21.1328H19.7422V18.5625C19.7422 18.0365 19.8411 17.5885 20.0391 17.2188C20.237 16.8438 20.5078 16.5599 20.8516 16.3672C21.1953 16.1693 21.5781 16.0703 22 16.0703C22.4271 16.0703 22.8099 16.1693 23.1484 16.3672C23.4922 16.5599 23.763 16.8438 23.9609 17.2188C24.1641 17.5885 24.2656 18.0365 24.2656 18.5625V21.1328H26.2031V18.6719C26.2031 17.9167 26.0859 17.2604 25.8516 16.7031C25.6172 16.1406 25.2995 15.6745 24.8984 15.3047C24.5026 14.9349 24.0547 14.6589 23.5547 14.4766C23.0547 14.2891 22.5365 14.1953 22 14.1953C21.4688 14.1953 20.9531 14.2891 20.4531 14.4766C19.9531 14.6589 19.5026 14.9349 19.1016 15.3047C18.7057 15.6745 18.388 16.1406 18.1484 16.7031C17.9141 17.2604 17.7969 17.9167 17.7969 18.6719V21.1328Z" fill="black"/>
<defs>
<linearGradient id="paint0_linear_664_454" x1="2" y1="42" x2="45.1175" y2="38.7502" gradientUnits="userSpaceOnUse">
<stop stop-color="#FEB85D"/>
<stop offset="1" stop-color="#F49FBC"/>
</linearGradient>
</defs>
</svg>
