<svg width="25" height="25" viewBox="0 0 25 25" fill="none" xmlns="http://www.w3.org/2000/svg">
<path fill-rule="evenodd" clip-rule="evenodd" d="M12.5 25C19.4036 25 25 19.4036 25 12.5C25 5.59644 19.4036 0 12.5 0C5.59644 0 0 5.59644 0 12.5C0 19.4036 5.59644 25 12.5 25ZM12.4792 13.4671L13.8567 14.8067C14.3646 15.295 14.8667 15.6573 15.3629 15.8935C15.859 16.1259 16.3827 16.242 16.934 16.242C17.6468 16.242 18.2729 16.0885 18.8123 15.7813C19.3518 15.4702 19.7712 15.0351 20.0704 14.476C20.3697 13.9168 20.5194 13.2612 20.5194 12.509C20.5194 11.7569 20.3697 11.1013 20.0704 10.5421C19.7712 9.97904 19.3518 9.54392 18.8123 9.23678C18.2729 8.9257 17.6468 8.77015 16.934 8.77015C16.3827 8.77015 15.859 8.88829 15.3629 9.12455C14.8667 9.36082 14.3646 9.72309 13.8567 10.2114L12.4792 11.551L11.0983 10.2114C10.5903 9.72309 10.0882 9.36082 9.59209 9.12455C9.09987 8.88829 8.57615 8.77015 8.02092 8.77015C7.30819 8.77015 6.68209 8.9257 6.14262 9.23678C5.60314 9.54392 5.18377 9.97904 4.8845 10.5421C4.58524 11.1013 4.4356 11.7569 4.4356 12.509C4.4356 13.2612 4.58524 13.9168 4.8845 14.476C5.18377 15.0351 5.60314 15.4702 6.14262 15.7813C6.68209 16.0885 7.30819 16.242 8.02092 16.242C8.57615 16.242 9.09987 16.1259 9.59209 15.8935C10.0882 15.6573 10.5903 15.295 11.0983 14.8067L12.4792 13.4671ZM10.1119 13.8026L11.4881 12.509L10.1119 11.2096C9.74172 10.8591 9.38929 10.5992 9.05458 10.4299C8.71988 10.2567 8.37532 10.17 8.02092 10.17C7.58777 10.17 7.20581 10.2665 6.87504 10.4594C6.5482 10.6524 6.29225 10.9241 6.10718 11.2746C5.92604 11.625 5.83547 12.0365 5.83547 12.509C5.83547 12.9816 5.92604 13.3931 6.10718 13.7435C6.29225 14.094 6.5482 14.3657 6.87504 14.5586C7.20581 14.7477 7.58777 14.8422 8.02092 14.8422C8.37532 14.8422 8.71988 14.7575 9.05458 14.5882C9.38929 14.4189 9.74172 14.157 10.1119 13.8026ZM14.8431 11.2096L13.4668 12.509L14.8431 13.8026C15.2132 14.157 15.5657 14.4189 15.9004 14.5882C16.239 14.7575 16.5836 14.8422 16.934 14.8422C17.3672 14.8422 17.7472 14.7477 18.074 14.5586C18.4048 14.3657 18.6607 14.094 18.8419 13.7435C19.0269 13.3931 19.1195 12.9816 19.1195 12.509C19.1195 12.0365 19.0269 11.625 18.8419 11.2746C18.6607 10.9241 18.4048 10.6524 18.074 10.4594C17.7472 10.2665 17.3672 10.17 16.934 10.17C16.5836 10.17 16.239 10.2567 15.9004 10.4299C15.5657 10.5992 15.2132 10.8591 14.8431 11.2096Z" fill="url(#paint0_linear_1110_17)"/>
<defs>
<linearGradient id="paint0_linear_1110_17" x1="12.5" y1="0" x2="12.5" y2="25" gradientUnits="userSpaceOnUse">
<stop stop-color="#FFCA00"/>
<stop offset="0.588542" stop-color="#FF9E0D"/>
</linearGradient>
</defs>
</svg>
