<svg width="18" height="16" viewBox="0 0 18 16" fill="none" xmlns="http://www.w3.org/2000/svg">
<path d="M14.3926 7.88672H16.252C16.2383 6.93424 16.0423 6.03418 15.6641 5.18652C15.2858 4.33431 14.764 3.58236 14.0986 2.93066C13.4378 2.27441 12.6722 1.75944 11.8018 1.38574C10.9313 1.01204 9.99707 0.825195 8.99902 0.825195C8.06478 0.825195 7.18522 1.00065 6.36035 1.35156C5.53548 1.69792 4.81771 2.16048 4.20703 2.73926C3.97005 2.93978 3.84017 3.16536 3.81738 3.41602C3.79915 3.66211 3.86068 3.87402 4.00195 4.05176C4.15234 4.24316 4.35286 4.3571 4.60352 4.39355C4.85872 4.43001 5.12305 4.34115 5.39648 4.12695C5.86133 3.6849 6.40137 3.33398 7.0166 3.07422C7.63639 2.81445 8.2972 2.68457 8.99902 2.68457C9.75098 2.68457 10.4505 2.82357 11.0977 3.10156C11.7448 3.375 12.3122 3.75326 12.7998 4.23633C13.2874 4.7194 13.6702 5.27311 13.9482 5.89746C14.2262 6.52181 14.3743 7.1849 14.3926 7.88672ZM8.99902 15.3105C9.93327 15.3105 10.8128 15.1351 11.6377 14.7842C12.4626 14.4378 13.1803 13.9753 13.791 13.3965C14.0234 13.196 14.1488 12.9704 14.167 12.7197C14.1898 12.4691 14.1305 12.2549 13.9893 12.0771C13.8389 11.8857 13.6383 11.7741 13.3877 11.7422C13.137 11.7057 12.875 11.7946 12.6016 12.0088C12.1367 12.4508 11.5944 12.8018 10.9746 13.0615C10.3594 13.3213 9.70085 13.4512 8.99902 13.4512C8.24251 13.4512 7.54069 13.3122 6.89355 13.0342C6.24642 12.7607 5.67904 12.3848 5.19141 11.9062C4.70378 11.4232 4.32096 10.8695 4.04297 10.2451C3.76497 9.61621 3.61914 8.95085 3.60547 8.24902H1.73926C1.75293 9.19694 1.94889 10.097 2.32715 10.9492C2.7054 11.8014 3.22493 12.5534 3.88574 13.2051C4.55111 13.8613 5.31901 14.3763 6.18945 14.75C7.0599 15.1237 7.99642 15.3105 8.99902 15.3105ZM0.782227 9.0625H4.74707C5.04329 9.0625 5.23014 8.95996 5.30762 8.75488C5.38509 8.54525 5.3304 8.31283 5.14355 8.05762L3.30469 5.52148C3.1543 5.31641 2.97428 5.21615 2.76465 5.2207C2.55501 5.2207 2.37728 5.32096 2.23145 5.52148L0.385742 8.05762C0.203451 8.30827 0.148763 8.53841 0.22168 8.74805C0.294596 8.95768 0.481445 9.0625 0.782227 9.0625ZM17.1885 7.07324H13.2236C12.932 7.07324 12.7474 7.17806 12.6699 7.3877C12.5924 7.59277 12.6471 7.82292 12.834 8.07812L14.666 10.6143C14.8164 10.8193 14.9964 10.9219 15.2061 10.9219C15.4157 10.9173 15.5957 10.8148 15.7461 10.6143L17.585 8.08496C17.7718 7.8252 17.8265 7.59277 17.749 7.3877C17.6761 7.17806 17.4893 7.07324 17.1885 7.07324Z" fill="#F6BD60"/>
</svg>
