<svg width="18" height="20" viewBox="0 0 18 20" fill="none" xmlns="http://www.w3.org/2000/svg">
<path d="M1.11719 19.6367C1.37109 19.6367 1.58594 19.5488 1.76172 19.373C1.94401 19.1973 2.03516 18.9824 2.03516 18.7285V13.3867C2.17188 13.3411 2.4388 13.2663 2.83594 13.1621C3.23958 13.0514 3.75065 12.9961 4.36914 12.9961C5.25456 12.9961 6.08138 13.0872 6.84961 13.2695C7.61784 13.4453 8.36654 13.6504 9.0957 13.8848C9.82487 14.1191 10.5638 14.3275 11.3125 14.5098C12.0677 14.6855 12.875 14.7734 13.7344 14.7734C14.2357 14.7734 14.6589 14.7539 15.0039 14.7148C15.349 14.6758 15.6517 14.6172 15.9121 14.5391C16.1725 14.4544 16.4297 14.3535 16.6836 14.2363C17.0352 14.0801 17.3086 13.8555 17.5039 13.5625C17.6992 13.2695 17.7969 12.8984 17.7969 12.4492V2.73242C17.7969 2.4069 17.6862 2.14974 17.4648 1.96094C17.2435 1.77214 16.9668 1.67773 16.6348 1.67773C16.3548 1.67773 15.9805 1.73958 15.5117 1.86328C15.043 1.98698 14.418 2.04883 13.6367 2.04883C12.7839 2.04883 11.9798 1.96094 11.2246 1.78516C10.4759 1.60286 9.73698 1.39453 9.00781 1.16016C8.27865 0.925781 7.52669 0.720703 6.75195 0.544922C5.97721 0.36263 5.14714 0.271484 4.26172 0.271484C3.77344 0.271484 3.35677 0.291016 3.01172 0.330078C2.67318 0.369141 2.37044 0.43099 2.10352 0.515625C1.8431 0.59375 1.57943 0.694661 1.3125 0.818359C0.973958 0.974609 0.703776 1.1862 0.501953 1.45312C0.30013 1.72005 0.199219 2.07487 0.199219 2.51758V18.7285C0.199219 18.9759 0.290365 19.1875 0.472656 19.3633C0.654948 19.5456 0.869792 19.6367 1.11719 19.6367Z" fill="#FEB85D"/>
</svg>
