<svg width="44" height="44" viewBox="0 0 44 44" fill="none" xmlns="http://www.w3.org/2000/svg">
<rect x="2" y="2" width="40" height="40" rx="10" fill="url(#paint0_linear_978_395)" stroke="white" stroke-opacity="0.2" stroke-width="4"/>
<path d="M21.9922 29.8516C22.3464 29.8516 22.6302 29.7396 22.8438 29.5156C23.0625 29.2917 23.1719 28.9948 23.1719 28.625V20.125L23.0469 17.125L22.375 17.5938L24.5625 20.1328L26.3516 21.9062C26.4557 22.0156 26.5755 22.1068 26.7109 22.1797C26.8516 22.2474 27.0104 22.2812 27.1875 22.2812C27.5052 22.2812 27.7708 22.1771 27.9844 21.9688C28.1979 21.7552 28.3047 21.4818 28.3047 21.1484C28.3047 20.8359 28.1823 20.5547 27.9375 20.3047L22.8594 15.2188C22.7552 15.1094 22.625 15.026 22.4688 14.9688C22.3125 14.9062 22.1536 14.875 21.9922 14.875C21.8359 14.875 21.6797 14.9062 21.5234 14.9688C21.3672 15.026 21.2344 15.1094 21.125 15.2188L16.0547 20.3047C15.8099 20.5547 15.6875 20.8359 15.6875 21.1484C15.6875 21.4818 15.7943 21.7552 16.0078 21.9688C16.2214 22.1771 16.487 22.2812 16.8047 22.2812C16.9818 22.2812 17.138 22.2474 17.2734 22.1797C17.4141 22.1068 17.5365 22.0156 17.6406 21.9062L19.4219 20.1328L21.6094 17.5938L20.9453 17.125L20.8203 20.125V28.625C20.8203 28.9948 20.9271 29.2917 21.1406 29.5156C21.3594 29.7396 21.6432 29.8516 21.9922 29.8516Z" fill="black"/>
<defs>
<linearGradient id="paint0_linear_978_395" x1="2" y1="42" x2="45.1175" y2="38.7502" gradientUnits="userSpaceOnUse">
<stop stop-color="#FEB85D"/>
<stop offset="1" stop-color="#F49FBC"/>
</linearGradient>
</defs>
</svg>
