<svg width="26" height="26" viewBox="0 0 26 26" fill="none" xmlns="http://www.w3.org/2000/svg">
<rect x="1" y="1" width="24" height="24" rx="6" fill="url(#paint0_linear_1189_7)" stroke="white" stroke-opacity="0.2" stroke-width="2"/>
<path d="M12.42 20.18V7.02H13.568V20.18H12.42ZM12.854 18.64C12.0887 18.64 11.356 18.5327 10.656 18.318C9.956 18.094 9.40067 17.8093 8.99 17.464L9.62 16.05C10.012 16.358 10.4973 16.6147 11.076 16.82C11.6547 17.0253 12.2473 17.128 12.854 17.128C13.3673 17.128 13.7827 17.072 14.1 16.96C14.4173 16.848 14.6507 16.6987 14.8 16.512C14.9493 16.316 15.024 16.0967 15.024 15.854C15.024 15.5553 14.9167 15.3173 14.702 15.14C14.4873 14.9533 14.2073 14.8087 13.862 14.706C13.526 14.594 13.148 14.4913 12.728 14.398C12.3173 14.3047 11.902 14.1973 11.482 14.076C11.0713 13.9453 10.6933 13.782 10.348 13.586C10.012 13.3807 9.73667 13.11 9.522 12.774C9.30733 12.438 9.2 12.0087 9.2 11.486C9.2 10.954 9.34 10.4687 9.62 10.03C9.90933 9.582 10.3433 9.22733 10.922 8.966C11.51 8.69533 12.252 8.56 13.148 8.56C13.736 8.56 14.3193 8.63467 14.898 8.784C15.4767 8.93333 15.9807 9.148 16.41 9.428L15.836 10.842C15.3973 10.5807 14.9447 10.3893 14.478 10.268C14.0113 10.1373 13.5633 10.072 13.134 10.072C12.63 10.072 12.2193 10.1327 11.902 10.254C11.594 10.3753 11.3653 10.534 11.216 10.73C11.076 10.926 11.006 11.15 11.006 11.402C11.006 11.7007 11.1087 11.9433 11.314 12.13C11.5287 12.3073 11.804 12.4473 12.14 12.55C12.4853 12.6527 12.868 12.7553 13.288 12.858C13.708 12.9513 14.1233 13.0587 14.534 13.18C14.954 13.3013 15.332 13.46 15.668 13.656C16.0133 13.852 16.2887 14.118 16.494 14.454C16.7087 14.79 16.816 15.2147 16.816 15.728C16.816 16.2507 16.6713 16.736 16.382 17.184C16.102 17.6227 15.668 17.9773 15.08 18.248C14.492 18.5093 13.75 18.64 12.854 18.64Z" fill="black"/>
<defs>
<linearGradient id="paint0_linear_1189_7" x1="1" y1="25" x2="26.8705" y2="23.0501" gradientUnits="userSpaceOnUse">
<stop stop-color="#FEB85D"/>
<stop offset="1" stop-color="#F49FBC"/>
</linearGradient>
</defs>
</svg>
