<svg width="60" height="60" viewBox="0 0 60 60" fill="none" xmlns="http://www.w3.org/2000/svg"  xmlns:xlink="http://www.w3.org/2000/svg">
<g filter="url(#filter0_b_1_543)">
<path fill-rule="evenodd" clip-rule="evenodd" d="M30 60C46.5685 60 60 46.5685 60 30C60 13.4315 46.5685 0 30 0C13.4315 0 0 13.4315 0 30C0 46.5685 13.4315 60 30 60ZM28.0518 32.3721H19.5117C18.9844 32.3721 18.5303 32.1816 18.1494 31.8008C17.7686 31.4199 17.5781 30.9609 17.5781 30.4238C17.5781 29.8867 17.7686 29.4277 18.1494 29.0469C18.5303 28.666 18.9844 28.4756 19.5117 28.4756H28.0518V19.9502C28.0518 19.4228 28.2422 18.9687 28.623 18.5879C29.0039 18.207 29.4629 18.0166 30 18.0166C30.5371 18.0166 30.9961 18.207 31.377 18.5879C31.7578 18.9687 31.9482 19.4228 31.9482 19.9502V28.4756H40.4883C41.0156 28.4756 41.4697 28.666 41.8506 29.0469C42.2314 29.4277 42.4219 29.8867 42.4219 30.4238C42.4219 30.9609 42.2314 31.4199 41.8506 31.8008C41.4697 32.1816 41.0156 32.3721 40.4883 32.3721H31.9482V40.9121C31.9482 41.4395 31.7578 41.8936 31.377 42.2744C30.9961 42.6553 30.5371 42.8457 30 42.8457C29.4629 42.8457 29.0039 42.6553 28.623 42.2744C28.2422 41.8936 28.0518 41.4395 28.0518 40.9121V32.3721Z" fill="url(#paint0_radial_1_543)"/>
</g>
<defs>
<filter id="filter0_b_1_543" x="-60" y="-60" width="180" height="180" filterUnits="userSpaceOnUse" color-interpolation-filters="sRGB">
<feFlood flood-opacity="0" result="BackgroundImageFix"/>
<feGaussianBlur in="BackgroundImage" stdDeviation="30"/>
<feComposite in2="SourceAlpha" operator="in" result="effect1_backgroundBlur_1_543"/>
<feBlend mode="normal" in="SourceGraphic" in2="effect1_backgroundBlur_1_543" result="shape"/>
</filter>
<radialGradient id="paint0_radial_1_543" cx="0" cy="0" r="1" gradientUnits="userSpaceOnUse" gradientTransform="translate(44.1176 21.9328) rotate(110.348) scale(40.6008)">
<stop stop-color="white" stop-opacity="0.6"/>
<stop offset="1" stop-color="white" stop-opacity="0.24"/>
</radialGradient>
</defs>
</svg>
