
<svg width="119" height="119" viewBox="0 0 119 119" fill="none" xmlns="http://www.w3.org/2000/svg" xmlns:xlink="http://www.w3.org/2000/svg">
<path fill-rule="evenodd" clip-rule="evenodd" d="M59.5 119C92.3609 119 119 92.3609 119 59.5C119 26.6391 92.3609 0 59.5 0C26.6391 0 0 26.6391 0 59.5C0 92.3609 26.6391 119 59.5 119ZM58.1807 75.1006C57.121 75.0066 56.201 74.8165 55.4207 74.5304C54.2586 74.1043 53.358 73.5136 52.7188 72.7582C52.099 71.9835 51.6923 71.1022 51.4986 70.1144L51.4405 69.7948H43.6834L43.7124 70.2306C43.8868 72.6323 44.6518 74.6951 46.0076 76.4188C47.3828 78.1233 49.2325 79.4306 51.5567 80.341C53.5113 81.0902 55.7193 81.5244 58.1807 81.6436V86.5001H61.086V81.6394C63.567 81.5096 65.8041 81.0478 67.7972 80.2538C70.1795 79.2854 72.0485 77.9005 73.4043 76.0993C74.7795 74.2786 75.4671 72.0803 75.4671 69.5043V69.4462C75.4671 66.3085 74.4599 63.8487 72.4456 62.0668C70.4506 60.2849 67.4292 58.9678 63.3811 58.1156L61.086 57.6352V47.5704C61.8881 47.6625 62.6144 47.8268 63.2649 48.0634C64.3496 48.4507 65.2212 49.0318 65.8797 49.8065C66.5382 50.5619 66.945 51.4916 67.0999 52.5956L67.158 52.8571H74.9151L74.857 52.3632C74.6633 49.9615 73.9079 47.9181 72.5909 46.233C71.2932 44.5286 69.521 43.2309 67.2742 42.34C65.4616 41.5992 63.3988 41.1598 61.086 41.0218V36.1517H58.1807V41.0052C55.718 41.1255 53.51 41.5994 51.5567 42.4271C49.2712 43.3956 47.4893 44.7707 46.211 46.5526C44.9327 48.3152 44.2935 50.3876 44.2935 52.7699V52.828C44.2935 55.8882 45.2716 58.348 47.2278 60.2074C49.2034 62.0668 52.1281 63.4032 56.0018 64.2167L58.1807 64.6808V75.1006ZM58.1807 57.0239V47.5355C57.1817 47.623 56.3101 47.8183 55.566 48.1215C54.5201 48.5282 53.726 49.0899 53.1836 49.8065C52.6607 50.5038 52.3992 51.2785 52.3992 52.1308V52.1889C52.3992 53.3703 52.8447 54.3581 53.7356 55.1522C54.6175 55.9215 56.0992 56.5454 58.1807 57.0239ZM61.086 65.3009V75.1321C62.2892 75.0563 63.306 74.8654 64.1365 74.5595C65.2405 74.1334 66.054 73.562 66.577 72.8454C67.0999 72.1094 67.3614 71.2668 67.3614 70.3178V70.2597C67.3614 69.0007 66.9062 67.9936 65.9959 67.2382C65.1258 66.4816 63.4892 65.8358 61.086 65.3009Z" fill="url(#paint0_radial_1_482)" fill-opacity="0.32"/>
<defs>
<radialGradient id="paint0_radial_1_482" cx="0" cy="0" r="1" gradientUnits="userSpaceOnUse" gradientTransform="translate(87.5 43.5) rotate(110.348) scale(80.5248)">
<stop stop-color="#86A8E7"/>
<stop offset="1" stop-color="#86A8E7" stop-opacity="0"/>
</radialGradient>
</defs>
</svg>
