<svg width="31" height="31" viewBox="0 0 31 31" fill="none" xmlns="http://www.w3.org/2000/svg">
<rect x="0.666992" width="30.3333" height="30.3333" rx="7.58333" fill="white" fill-opacity="0.24"/>
<path d="M11.4107 12.0822L19.149 19.8136C19.2447 19.9139 19.3586 19.9822 19.4908 20.0187C19.6275 20.0506 19.7619 20.0483 19.8941 20.0118C20.0308 19.9754 20.1493 19.9093 20.2496 19.8136C20.3498 19.7133 20.4159 19.5948 20.4478 19.4581C20.4797 19.3214 20.4797 19.187 20.4478 19.0548C20.4159 18.9181 20.3498 18.8019 20.2496 18.7062L12.525 10.9679C12.4293 10.8722 12.313 10.8084 12.1763 10.7765C12.0396 10.7446 11.9029 10.7446 11.7662 10.7765C11.634 10.8084 11.5178 10.8745 11.4175 10.9747C11.3127 11.075 11.2444 11.1935 11.2125 11.3302C11.1806 11.4669 11.1806 11.6036 11.2125 11.7404C11.2489 11.8725 11.315 11.9865 11.4107 12.0822ZM11.4107 18.7062C11.315 18.8019 11.2489 18.9181 11.2125 19.0548C11.1806 19.187 11.1806 19.3214 11.2125 19.4581C11.2444 19.5948 11.3127 19.7133 11.4175 19.8136C11.5178 19.9139 11.634 19.9799 11.7662 20.0118C11.9029 20.0437 12.0396 20.0437 12.1763 20.0118C12.313 19.9799 12.4293 19.9161 12.525 19.8204L20.2496 12.0822C20.3498 11.9865 20.4159 11.8725 20.4478 11.7404C20.4797 11.6036 20.4797 11.4669 20.4478 11.3302C20.4159 11.1935 20.3498 11.0773 20.2496 10.9816C20.1493 10.8813 20.0308 10.8152 19.8941 10.7833C19.7619 10.7469 19.6275 10.7446 19.4908 10.7765C19.3586 10.8084 19.2447 10.8745 19.149 10.9747L11.4107 18.7062Z" fill="white"/>
</svg>
